<svg width="50" height="50" viewBox="0 0 50 50" fill="none" xmlns="http://www.w3.org/2000/svg" xmlns:xlink="http://www.w3.org/1999/xlink">
<path d="M21.9565 1.75715C23.8398 0.669818 26.1602 0.669818 28.0435 1.75715L43.607 10.7428C45.4904 11.8302 46.6504 13.8396 46.6504 16.0143V33.9857C46.6504 36.1603 45.4904 38.1698 43.607 39.2572L28.0435 48.243C26.1602 49.33 23.8398 49.33 21.9565 48.243L6.39283 39.2572C4.50952 38.1698 3.34937 36.1603 3.34937 33.9857V16.0143C3.34937 13.8396 4.50952 11.8302 6.39283 10.7428L21.9565 1.75715Z" fill="#FF002E"/>
<path d="M25 37.5C22.1042 36.7708 19.7133 35.1092 17.8275 32.515C15.9417 29.9208 14.9992 27.0408 15 23.875V16.25L25 12.5L35 16.25V23.875C35 27.0417 34.0571 29.9221 32.1713 32.5163C30.2854 35.1104 27.895 36.7717 25 37.5Z" fill="black"/>
</svg>
